<svg width="244" height="57" viewBox="0 0 244 57" fill="none" xmlns="http://www.w3.org/2000/svg">
<g clip-path="url(#clip0_1_22)">
<mask id="mask0_1_22" style="mask-type:luminance" maskUnits="userSpaceOnUse" x="0" y="0" width="244" height="57">
<path d="M244 0.289139H0V56.8574H244V0.289139Z" fill="white"/>
</mask>
<g mask="url(#mask0_1_22)">
<path fill-rule="evenodd" clip-rule="evenodd" d="M-0.000234667 54.4992H13.663V35.4876C13.663 28.0463 13.6633 14.3691 24.7746 14.3691C26.8721 14.2755 28.9645 14.6537 30.8921 15.475V1.89709C29.5244 1.57077 28.1167 1.43634 26.7109 1.49783C18.5548 1.49783 12.9453 9.64009 12.3315 14.4685H12.1301V2.7068H-0.00209045L-0.000234667 54.4992Z" fill="white"/>
<path fill-rule="evenodd" clip-rule="evenodd" d="M87.5802 2.70717H73.9112V28.0467C73.9112 34.6877 71.7732 45.2479 61.882 45.2479C53.1158 45.2479 53.0096 36.6968 53.0096 30.3597V2.70717H39.3463V35.3904C39.3463 47.0529 44.7483 55.7029 57.1861 55.7029C60.5047 55.7063 63.7816 54.9657 66.7674 53.5369C69.7534 52.1081 72.371 50.0287 74.4226 47.4557H74.6295V54.4996H87.5819L87.5802 2.70717Z" fill="white"/>
<path fill-rule="evenodd" clip-rule="evenodd" d="M101.432 54.4992H115.097V29.3527C115.097 22.6161 116.215 11.9529 125.287 11.9529C133.143 11.9529 133.143 18.7906 133.143 23.6246V54.4992H146.806V29.3527C146.806 22.6161 147.922 11.9529 157 11.9529C164.848 11.9529 164.848 18.7906 164.848 23.6246V54.4992H178.513V21.812C178.513 10.2472 174.832 1.49764 161.891 1.49764C158.564 1.37703 155.27 2.16863 152.372 3.78439C149.475 5.40017 147.088 7.77682 145.478 10.6502C142.515 4.20986 137.318 1.49764 129.977 1.49764C126.866 1.49786 123.806 2.27197 121.08 3.74827C118.353 5.22459 116.049 7.35542 114.379 9.94356H114.174V2.70661H101.43L101.432 54.4992Z" fill="white"/>
<path fill-rule="evenodd" clip-rule="evenodd" d="M224.17 14.4967L220.623 17.4714C217.838 16.2443 214.823 15.6119 211.772 15.6157C208.481 15.6468 205.24 16.4023 202.282 17.827C199.324 19.2516 196.725 21.3095 194.677 23.8505C192.628 26.3916 191.181 29.3516 190.44 32.5149C189.699 35.678 189.683 38.9643 190.394 42.1342C188.087 38.034 186.89 33.4163 186.92 28.7269C186.92 15.3965 195.092 4.59073 207.53 4.59073C210.934 4.68816 214.253 5.65133 217.169 7.38692C220.084 9.1225 222.496 11.5716 224.17 14.4967Z" fill="white"/>
<path fill-rule="evenodd" clip-rule="evenodd" d="M244 26.4588C244 34.4717 239.338 40.5804 231.946 43.9016L225.672 34.9404C227.93 31.5273 229.133 27.5394 229.133 23.4635C229.011 17.5913 226.533 12.0067 222.239 7.93712C217.945 3.86751 212.189 1.64583 206.235 1.76032H206.057C209.004 0.862918 212.06 0.36725 215.142 0.287079C231.083 0.288954 244 13.2539 244 26.4588Z" fill="white"/>
<path fill-rule="evenodd" clip-rule="evenodd" d="M241.459 40.3273C237.9 48.9157 227.667 56.8573 214.955 56.8573C201.432 56.8573 192.485 47.8604 192.485 36.7753C192.488 34.1158 193.119 31.4935 194.329 29.1166L203.669 31.1636C205 40.8502 215.05 48.0983 225.034 48.0983C228.159 47.9503 231.224 47.1865 234.045 45.8518C236.866 44.517 239.385 42.6385 241.459 40.3273Z" fill="white"/>
</g>
</g>
<defs>
<clipPath id="clip0_1_22">
<rect width="244" height="57" fill="white"/>
</clipPath>
</defs>
</svg>
