<svg width="29" height="28" viewBox="0 0 29 28" fill="none" xmlns="http://www.w3.org/2000/svg">
<path fill-rule="evenodd" clip-rule="evenodd" d="M19.0849 7.12118L17.3116 8.58239C15.9193 7.97961 14.4114 7.66897 12.8862 7.67086C11.2406 7.68613 9.61982 8.05724 8.14094 8.75707C6.66217 9.45689 5.36276 10.4678 4.3385 11.716C3.31424 12.9643 2.59058 14.4183 2.22009 15.9722C1.84959 17.526 1.84157 19.1404 2.19687 20.6975C1.04333 18.6833 0.44499 16.415 0.459865 14.1114C0.459865 7.56314 4.54623 2.25507 10.765 2.25507C12.4669 2.30293 14.1268 2.77606 15.5843 3.62863C17.0419 4.4812 18.248 5.68426 19.0849 7.12118Z" fill="white"/>
<path fill-rule="evenodd" clip-rule="evenodd" d="M29.0001 12.9973C29.0001 16.9334 26.6692 19.9342 22.9729 21.5657L19.8362 17.1637C20.9652 15.4871 21.5666 13.5281 21.5666 11.5259C21.5056 8.64132 20.2664 5.89801 18.1196 3.89891C15.9728 1.8998 13.0944 0.808447 10.1175 0.86469H10.0284C11.5019 0.42386 13.0299 0.180374 14.5709 0.140991C22.5416 0.141912 29.0001 6.51067 29.0001 12.9973Z" fill="white"/>
<path fill-rule="evenodd" clip-rule="evenodd" d="M27.7297 19.8098C25.95 24.0287 20.8335 27.9298 14.4778 27.9298C7.71586 27.9298 3.24231 23.5103 3.24231 18.065C3.24402 16.7586 3.55962 15.4705 4.16459 14.3029L8.83473 15.3084C9.49984 20.0667 14.5249 23.6272 19.5172 23.6272C21.0797 23.5545 22.6122 23.1793 24.0227 22.5237C25.4331 21.8679 26.6927 20.9452 27.7297 19.8098Z" fill="white"/>
</svg>
